<?xml version="1.0" standalone="no"?>
<svg xmlns="http://www.w3.org/2000/svg" width="24" height="24"><rect width="24" height="24" opacity="0"></rect><g><path d="M21.6 11.16Q21.41 8.83 20.17 6.89Q18.94 4.94 16.97 3.73Q15 2.52 12.67 2.33L12.67 1.73Q12.67 1.42 12.46 1.19Q12.24 0.96 11.93 0.96Q11.62 0.96 11.39 1.19Q11.16 1.42 11.16 1.73L11.16 2.33Q8.81 2.52 6.84 3.76Q4.87 4.99 3.65 6.97Q2.42 8.95 2.26 11.33L1.73 11.33Q1.42 11.33 1.19 11.54Q0.96 11.76 0.96 12.07Q0.96 12.38 1.19 12.6Q1.42 12.82 1.73 12.82L2.26 12.82Q2.45 15.17 3.7 17.15Q4.94 19.13 6.95 20.34Q8.95 21.55 11.33 21.7L11.33 22.27Q11.33 22.58 11.54 22.8Q11.76 23.02 12.07 23.02Q12.38 23.02 12.6 22.8Q12.82 22.58 12.82 22.27L12.82 21.7Q15.14 21.48 17.1 20.23Q19.06 18.98 20.26 17Q21.46 15.02 21.6 12.67L22.27 12.67Q22.58 12.67 22.8 12.46Q23.02 12.24 23.02 11.93Q23.02 11.62 22.8 11.39Q22.58 11.16 22.27 11.16L21.6 11.16ZM3.74 11.33Q3.91 9.38 4.93 7.73Q5.95 6.07 7.58 5.04Q9.22 4.01 11.16 3.84L11.16 4.44Q11.16 4.75 11.39 4.97Q11.62 5.18 11.93 5.18Q12.24 5.18 12.46 4.97Q12.67 4.75 12.67 4.44L12.67 3.84Q14.59 4.01 16.21 5.02Q17.83 6.02 18.86 7.63Q19.9 9.24 20.09 11.16L19.56 11.16Q19.25 11.16 19.02 11.39Q18.79 11.62 18.79 11.93Q18.79 12.24 19.02 12.46Q19.25 12.67 19.56 12.67L20.11 12.67Q19.97 14.62 18.96 16.25Q17.95 17.88 16.34 18.92Q14.74 19.97 12.82 20.18L12.82 19.56Q12.82 19.25 12.6 19.02Q12.38 18.79 12.07 18.79Q11.76 18.79 11.54 19.02Q11.33 19.25 11.33 19.56L11.33 20.21Q9.36 20.06 7.69 19.06Q6.02 18.05 4.98 16.4Q3.94 14.76 3.77 12.82L4.44 12.82Q4.75 12.82 4.97 12.6Q5.18 12.38 5.18 12.07Q5.18 11.76 4.97 11.54Q4.75 11.33 4.44 11.33L3.74 11.33ZM10.06 12.07Q10.06 12.89 10.62 13.45Q11.18 14.02 12 14.02Q12.79 14.02 13.36 13.45Q13.92 12.89 13.92 12.07Q13.92 11.28 13.36 10.72Q12.79 10.15 12 10.15Q11.18 10.15 10.62 10.72Q10.06 11.28 10.06 12.07Z" fill="rgba(0,0,0,0.9019607843137255)"></path></g></svg>